<svg width="1920" height="1080" viewBox="0 0 1920 1080" fill="none" xmlns="http://www.w3.org/2000/svg">
  <defs>
    <linearGradient id="g1" x1="0" y1="0" x2="1920" y2="1080" gradientUnits="userSpaceOnUse">
      <stop offset="0" stop-color="#E7EEF8"/>
      <stop offset="1" stop-color="#F4F7FB"/>
    </linearGradient>
    <linearGradient id="g2" x1="260" y1="220" x2="980" y2="760" gradientUnits="userSpaceOnUse">
      <stop offset="0" stop-color="#CBDDF6" stop-opacity="0.55"/>
      <stop offset="1" stop-color="#CBDDF6" stop-opacity="0"/>
    </linearGradient>
    <linearGradient id="g3" x1="1380" y1="120" x2="1820" y2="580" gradientUnits="userSpaceOnUse">
      <stop offset="0" stop-color="#D6E4FA" stop-opacity="0.48"/>
      <stop offset="1" stop-color="#D6E4FA" stop-opacity="0"/>
    </linearGradient>
    <linearGradient id="g4" x1="1180" y1="720" x2="1730" y2="1050" gradientUnits="userSpaceOnUse">
      <stop offset="0" stop-color="#C9DAF3" stop-opacity="0.38"/>
      <stop offset="1" stop-color="#C9DAF3" stop-opacity="0"/>
    </linearGradient>
  </defs>

  <rect width="1920" height="1080" fill="url(#g1)"/>
  <circle cx="220" cy="160" r="320" fill="url(#g2)"/>
  <circle cx="1620" cy="220" r="260" fill="url(#g3)"/>
  <circle cx="1520" cy="980" r="300" fill="url(#g4)"/>

  <g opacity="0.32">
    <path d="M0 860C160 780 350 770 520 840C700 915 885 920 1060 840C1240 760 1420 740 1600 805C1715 845 1810 910 1920 980" stroke="#B8CBE6" stroke-width="2"/>
    <path d="M0 910C160 830 350 820 520 890C700 965 885 970 1060 890C1240 810 1420 790 1600 855C1715 895 1810 960 1920 1030" stroke="#C7D7EC" stroke-width="2"/>
  </g>

  <g opacity="0.22">
    <rect x="150" y="250" width="180" height="180" rx="20" stroke="#9FB6D9"/>
    <rect x="1540" y="310" width="220" height="140" rx="18" stroke="#9FB6D9"/>
    <rect x="1320" y="760" width="180" height="120" rx="16" stroke="#9FB6D9"/>
  </g>
</svg>
